<svg width="38" height="37" viewBox="0 0 34 36" fill="none" xmlns="http://www.w3.org/2000/svg">
<path fill-rule="evenodd" clip-rule="evenodd" d="M3.62145 0.142141C2.81764 0.329013 2.26583 0.66338 1.62842 1.34971C0.991101 2.03613 0.680611 2.63038 0.507082 3.496C0.335253 4.353 0.329024 31.5745 0.500449 32.4439C0.687972 33.3949 0.960684 33.9305 1.61386 34.6305C2.27699 35.3409 2.81294 35.6619 3.6585 35.8548C4.50753 36.0484 29.6652 36.0484 30.5142 35.8548C31.3572 35.6625 31.8964 35.3406 32.5443 34.643C33.1925 33.9448 33.4914 33.3636 33.6689 32.4568C33.8448 31.5569 33.8466 4.45249 33.6707 3.5488C33.4862 2.6005 33.213 2.06323 32.5588 1.36226C31.8956 0.651706 31.3596 0.330756 30.5142 0.138133C29.6949 -0.0485653 4.42542 -0.044819 3.62145 0.142141ZM17.9559 11.4732C18.5996 11.6309 19.0597 12.0068 19.0782 12.3902C19.099 12.8197 19.0947 13.0892 19.035 15.128C18.9681 17.4146 19.01 17.8108 19.3585 18.186C19.6157 18.463 19.8025 18.4024 20.3076 17.8782C21.0501 17.1076 22.0887 15.3117 22.8089 13.5532C23.3488 12.2348 23.3491 12.2342 23.571 12.1253C23.7006 12.0617 24.551 12.0286 26.0546 12.0286C28.244 12.0286 28.3488 12.0362 28.5183 12.2063C29.0251 12.7147 28.4196 13.9921 26.1345 17.2352C25.5738 18.031 25.065 18.8108 25.004 18.9681C24.7387 19.6518 24.8908 19.959 26.0814 21.1447C28.2735 23.3277 29.1714 24.9312 28.4763 25.4213C28.2799 25.5598 28.0257 25.5758 26.0233 25.5758H24.3321C23.976 25.5758 23.6258 25.4857 23.3139 25.3139C22.947 25.1118 22.6299 24.8065 21.925 23.9765C20.8617 22.7244 20.5314 22.4215 20.1447 22.3434C19.5289 22.219 19.1861 22.8015 19.0344 24.2301C18.8881 25.6066 18.9261 25.5773 17.3061 25.5706C15.8634 25.5646 15.101 25.4468 14.1837 25.0883C12.0846 24.268 10.2866 22.26 8.02801 18.2142C7.11766 16.5833 5.4691 12.9981 5.45931 12.6278C5.4543 12.4362 5.50955 12.2984 5.63543 12.1886C5.8024 12.043 5.99915 12.0286 7.82787 12.0286C10.2002 12.0286 10.0718 11.975 10.536 13.1612C11.2834 15.0705 12.4573 17.1902 13.1587 17.8968C13.4972 18.2377 13.6163 18.3071 13.824 18.2849C14.1728 18.2474 14.3506 17.9506 14.4926 17.1687C14.7278 15.874 14.6913 14.3557 14.4044 13.4963C14.229 12.9712 13.8485 12.5263 13.4765 12.4114C13.3262 12.365 13.2032 12.2699 13.2032 12.2C13.2032 11.9182 14.3484 11.4605 15.4684 11.2947C15.9276 11.2267 17.3728 11.3304 17.9559 11.4732Z" fill="#00984F"/>
</svg>
