<svg width="38" height="37" viewBox="0 0 24 28" fill="none" xmlns="http://www.w3.org/2000/svg">
<path d="M22.2145 17.1042C22.2145 22.8299 17.4107 27.4998 11.4495 27.4998C5.48837 27.4998 0.68457 22.8299 0.68457 17.1042C0.68457 11.3785 5.48837 6.70872 11.4495 6.70872C17.4107 6.70872 22.2145 11.3785 22.2145 17.1042Z" stroke="#00984F"/>
<path fill-rule="evenodd" clip-rule="evenodd" d="M17.0907 5.99954V16.1915L17.0658 16.1995V16.2131C17.0658 17.2095 16.9913 18.1394 16.8512 18.6143C16.1802 20.8967 14.0087 22.5526 11.4337 22.5526C8.32277 22.5526 5.83398 20.1217 5.83398 17.1125C5.83398 14.104 8.32277 11.6731 11.4337 11.6731C12.8993 11.6731 14.234 12.2147 15.2365 13.102C15.5638 13.3924 15.8554 13.7189 16.1048 14.0759C16.0352 13.7566 15.9672 13.3547 15.9672 13.0105V0.756756L23.2985 2.92928V7.84955L17.0907 5.99954Z" fill="#00984F"/>
</svg>
