<svg  width="38" height="37" viewBox="0 0 38 37" fill="none" xmlns="http://www.w3.org/2000/svg">
<path fill-rule="evenodd" clip-rule="evenodd" d="M17.8597 0.0234297C13.9397 0.314222 10.216 1.86508 7.25477 4.44021C6.74714 4.88164 5.74812 5.89674 5.30728 6.41898C2.70412 9.50305 1.19249 13.2623 0.930897 17.3028C0.650926 21.6267 1.90309 25.9692 4.43641 29.46C4.98132 30.2109 5.46416 30.7729 6.24655 31.5669C7.01733 32.3492 7.53727 32.8114 8.25945 33.3565C14.4082 37.9971 22.796 38.2248 29.1903 33.9248C30.2801 33.192 31.1422 32.466 32.1132 31.4634C33.5717 29.9574 34.6247 28.4509 35.5151 26.5961C38.9224 19.4984 37.5188 11.0019 32.0149 5.40717C30.5796 3.94815 28.9731 2.78241 27.1437 1.87226C25.1699 0.890254 23.2251 0.323439 20.9854 0.0773725C20.3382 0.00624207 18.5153 -0.0251868 17.8597 0.0234297ZM19.0132 9.31474C23.329 9.59303 27.2067 10.5684 30.288 12.1507C31.648 12.8491 32.0184 13.1896 32.2012 13.9091C32.268 14.1722 32.2776 14.7254 32.2198 14.9803C32.1069 15.4778 31.7056 15.991 31.2532 16.2163C30.9235 16.3805 30.6817 16.4269 30.248 16.4092C29.89 16.3946 29.8753 16.3904 29.4808 16.1844C29.2596 16.0689 28.8024 15.8305 28.4647 15.6546C26.5655 14.6652 24.0877 13.928 21.3203 13.5291C18.8561 13.1739 16.0823 13.1112 13.7063 13.357C12.2041 13.5125 11.2074 13.6962 9.7156 14.0926C8.76357 14.3456 8.16847 14.2245 7.61117 13.6645C7.24654 13.2981 7.06871 12.8443 7.06871 12.2805C7.06871 11.6865 7.25119 11.2061 7.615 10.8422C7.85635 10.6009 8.13658 10.4492 8.61294 10.3021C10.3496 9.76562 12.7943 9.38545 15.2129 9.27572C16.0449 9.23802 18.1599 9.2597 19.0132 9.31474ZM18.8272 16.1287C22.4576 16.4944 25.5475 17.4175 28.3344 18.9689C29.3937 19.5586 29.6423 19.8111 29.7899 20.4474C29.8653 20.7728 29.8414 21.2294 29.734 21.5154C29.5794 21.927 29.2125 22.3007 28.7996 22.4673C28.6391 22.532 28.5146 22.5503 28.2228 22.552C27.8669 22.5541 27.8378 22.548 27.5559 22.4112C27.3937 22.3327 27.1676 22.2108 27.0535 22.1404C26.7571 21.9578 25.7241 21.4377 25.2643 21.2397C23.2032 20.3522 20.834 19.7748 18.3062 19.544C17.5873 19.4783 15.0707 19.4779 14.3992 19.5434C12.9028 19.6892 11.4376 19.9615 10.3804 20.2901C10.1148 20.3727 10.015 20.3856 9.75713 20.3706C8.99632 20.3263 8.37975 19.7523 8.25197 18.9696C8.16169 18.4165 8.37193 17.7628 8.7514 17.4164C9.07484 17.1213 9.2565 17.0475 10.3246 16.7778C11.6769 16.4364 13.0133 16.2076 14.1945 16.115C14.481 16.0926 14.7908 16.0681 14.8829 16.0605C15.3659 16.021 18.2537 16.0709 18.8272 16.1287ZM18.5481 22.5719C21.2173 22.8148 23.469 23.4296 25.6181 24.5023C27.0343 25.2092 27.459 25.5391 27.6122 26.0511C27.8815 26.9511 27.3893 27.7977 26.5111 27.9454C26.1784 28.0014 25.9051 27.918 25.3415 27.5888C23.2944 26.3929 21.2198 25.7359 18.5481 25.4372C17.8449 25.3586 15.2219 25.3704 14.4178 25.4558C13.1903 25.5861 11.7328 25.8254 10.9083 26.032C10.0392 26.2498 9.42164 26.0251 9.10754 25.3769C8.99208 25.1386 8.98512 25.1012 8.98657 24.7269C8.9884 24.2569 9.06892 24.0022 9.29992 23.7358C9.52958 23.4709 9.79355 23.3523 10.4926 23.1999C12.1525 22.8381 13.8313 22.6068 15.4224 22.521C15.9024 22.4951 18.0965 22.5308 18.5481 22.5719Z" fill="#00984F"/>
</svg>
