<svg width="38" height="37" viewBox="0 0 28 22" fill="none" xmlns="http://www.w3.org/2000/svg">
<g clip-path="url(#clip0_211_25)">
<path d="M5.67487 0.616419C3.86404 0.835878 2.7338 1.28851 1.94384 2.11149C1.50633 2.57784 1.26326 3.11277 1.00805 4.16892C0.825749 4.96446 0.801443 5.71885 0.825749 10.8213C0.837902 13.9897 0.886515 16.733 0.935127 16.9113C1.34834 18.5435 1.55494 19.0373 2.17475 19.7368C2.9161 20.6009 3.71821 21.0673 5.00644 21.4102C5.85716 21.6297 6.68358 21.6571 14.3279 21.6571H22.7136L23.6859 21.3416C24.9984 20.9164 25.8613 20.3266 26.2624 19.5997C26.6877 18.8453 27.0523 17.8577 27.2468 16.9936C27.5506 15.5945 27.5384 5.80115 27.2346 4.41581C26.712 2.05662 25.3995 0.959324 22.6529 0.616419C21.3646 0.46554 7.03602 0.46554 5.67487 0.616419ZM15.1665 8.43466C16.71 9.33993 18.0711 10.2041 18.1926 10.3549C18.4479 10.7116 18.46 11.1505 18.2169 11.5345C17.9982 11.8911 12.2254 15.2791 11.8487 15.2791C11.7028 15.2791 11.4476 15.1282 11.2896 14.9362L10.9858 14.607V11.027C10.9858 8.75014 11.0344 7.33737 11.1195 7.17277C11.2775 6.81615 11.6907 6.62412 12.0674 6.72014C12.2376 6.76128 13.6352 7.52939 15.1665 8.43466Z" fill="#00984F"/>
</g>
<defs>
<clipPath id="clip0_211_25">
<rect width="27.5877" height="21.9459" fill="white" transform="translate(0.412598 0.0540543)"/>
</clipPath>
</defs>
</svg>
